<svg xmlns="http://www.w3.org/2000/svg" viewBox="0 0 56.57 37.22"><defs><style>.cls-1{fill:#3e2155;}</style></defs><g id="Capa_2" data-name="Capa 2"><g id="Capa_1-2" data-name="Capa 1"><path class="cls-1" d="M52.82,17.91A34.31,34.31,0,0,1,36.22,34,33.75,33.75,0,0,1,19,37.1,32.44,32.44,0,0,1,0,29.33c.83.48,1.64,1,2.48,1.44a29,29,0,0,0,10.74,3.5,40.83,40.83,0,0,0,5.51.39A30.33,30.33,0,0,0,30.44,32,32.21,32.21,0,0,0,47.28,14.58a.65.65,0,0,0-.4-.86,2,2,0,0,1-1-2.68A1.91,1.91,0,0,1,48.34,10a15.07,15.07,0,0,1,7.8,5.43A2.31,2.31,0,0,1,56,18.28a2.17,2.17,0,0,1-2.87-.18,2.94,2.94,0,0,0-.29-.19"/><path class="cls-1" d="M15,3.57c1.19-.11,2.37-.27,3.56-.32a2.26,2.26,0,0,1,1.26.44q4.77,3.48,9.49,7c1,.71,1.91,1.42,2.8,2.2A1.7,1.7,0,0,1,32,15.55a24.64,24.64,0,0,0-4.19,5.5c-.67,1.22-1.64,1.6-2.64.87-2.9-2.11-5.78-4.25-8.67-6.39-1.12-.83-2.18-1.74-3.35-2.49s-1-1.76-1.23-2.75c-.33-1.55-.57-3.12-.83-4.69a1.46,1.46,0,0,1,0-.72,3,3,0,0,1,.44-.69c.2.15.48.26.58.46.32.63.51,1.33.86,1.94a1.51,1.51,0,0,0,.89.66.94.94,0,0,0,.82-.42,1.88,1.88,0,0,0-.14-1.13c-.24-.6-.58-1.17-.89-1.77l1.38-.38Z"/><path class="cls-1" d="M15.05,3.54a3.3,3.3,0,0,1-.62-.81C14.19,2,14.05,1.2,13.84.29c-1,.66-1.56,1.23-1.1,2.3.38.89.7,1.82,1,2.74a1.81,1.81,0,0,1,0,1.06A7.62,7.62,0,0,1,12.14,1.2,1.27,1.27,0,0,1,13.34,0a1,1,0,0,1,1.25.76c.18.92.29,1.86.43,2.79l0,0"/></g></g></svg>