<svg xmlns="http://www.w3.org/2000/svg" viewBox="0 0 9.94 18.71"><defs><style>.cls-1{fill:#3e2155;}</style></defs><g id="Capa_2" data-name="Capa 2"><g id="Capa_1-2" data-name="Capa 1"><path class="cls-1" d="M4.27,14.5a1.09,1.09,0,0,1-1.11-1.09v-.08c0-2.52,1.43-4.06,2.69-5.41S7.71,5.85,7.71,4.65A2.4,2.4,0,0,0,5.49,2.28a3,3,0,0,0-3.3,2.13,1.11,1.11,0,0,1-1.36.81A1.14,1.14,0,0,1,0,3.83,5.27,5.27,0,0,1,5.64,0a4.7,4.7,0,0,1,4.3,4.64c0,2.16-1.31,3.58-2.47,4.83s-2.08,2.23-2.08,3.85A1.16,1.16,0,0,1,4.27,14.5"/><path class="cls-1" d="M5.66,17.35A1.33,1.33,0,1,1,4.33,16a1.34,1.34,0,0,1,1.33,1.36"/></g></g></svg>